<svg fill-rule="evenodd" clip-rule="evenodd" stroke-linejoin="round" stroke-miterlimit="1.414" xmlns="http://www.w3.org/2000/svg" viewBox="0 0 142.52 105.231" preserveAspectRatio="xMidYMid meet" fill="currentColor" alt="25th Anniversary Logo" id="logo" height="93.5px" width="142.52" data-testid="icon" class="InlineSvg-sc-1dm0aac-3 hRcMLS"><title>logo</title><g id="_25th_Anniversary_Logo_Spot" data-name="25th_Anniversary_Logo_Spot" transform="translate(-35.42 -65.004)"><path id="Path_7480" data-name="Path 7480" d="M177.531,65.536c-2.275-1.973-26.28-.289-48.591,37.868a53.607,53.607,0,0,0-44.521,0c-22.31-38.157-46.314-39.841-48.59-37.868-1.974,1.71,2.21,24.856,34.746,48.195-5.34,6.093-8.34,13.388-8.34,20.668,0,19.412,19.46,35.836,44.444,35.836s44.446-16.425,44.446-35.836c0-7.28-3-14.575-8.341-20.668C175.322,90.392,179.5,67.245,177.531,65.536Z" transform="translate(0 0)" fill="#ffd000"></path><path id="Path_7481" data-name="Path 7481" d="M35.829,65.536c-1.5,1.3.552,14.943,15.851,31.649a77.711,77.711,0,0,1,8.3-22.945C47.234,64.5,37.257,64.3,35.829,65.536Z" transform="translate(0 0)" fill="#0d1319"></path><path id="Path_7482" data-name="Path 7482" d="M238.35,65.536c1.5,1.3-.551,14.943-15.851,31.649a77.692,77.692,0,0,0-8.3-22.945C226.945,64.5,236.923,64.3,238.35,65.536Z" transform="translate(-60.818 0)" fill="#0d1319"></path><path id="Path_7483" data-name="Path 7483" d="M95.5,182.931a9.213,9.213,0,0,1-3.459-.342c2.091-.87,7.214-5.341,4.667-9.941A8.8,8.8,0,0,0,82.05,172.3a6.862,6.862,0,0,0-1.516,5.786s4.5,5.094,6.964-2.192a2.605,2.605,0,0,1,2.616-.236,1.431,1.431,0,0,1,.732,1.048c.247,1.268-1.161,2.755-3.009,4.171-.409.313-.342.321-.781.625-1.581-.393-4.08.362-4.409,3.9a14.653,14.653,0,0,0,2.111,2.008,9.686,9.686,0,0,0,1.023-.646c1.033,2.233,4.856,3.781,8.242,2.175a8.029,8.029,0,0,0,4.882-7.728A8.512,8.512,0,0,1,95.5,182.931Z" transform="translate(-15.3 -35.219)" fill="#e1001e"></path><path id="Path_7484" data-name="Path 7484" d="M192.038,173.85a8.4,8.4,0,0,0,1.346.358,4.116,4.116,0,0,0,1.86-.062,3.309,3.309,0,0,0,2.113-3.062,6.8,6.8,0,0,0,.043-.872c0-.24-.018-.388-.018-.388a6.453,6.453,0,0,0-1.348-1.38c-3.631-2.7-9.38-1-11.33-.323a29.978,29.978,0,0,0-3.467,1.445,2.809,2.809,0,0,0,.754,2.109,15.413,15.413,0,0,1-.712,2.868,22.661,22.661,0,0,1-1.908,3.8,2.032,2.032,0,0,0-.081.417.593.593,0,0,0,.234.449,8.924,8.924,0,0,0,2.542,1.118,9.144,9.144,0,0,0,2.5.555,7.039,7.039,0,0,0,1.368-.715,5.044,5.044,0,0,1,2.46-.892c.713,0,.938.117.94.613,0,.811-.209,2.006-3.1,2.965a7.661,7.661,0,0,1-3.81-.372,10.35,10.35,0,0,1-3.3-1.77,8.03,8.03,0,0,0,4.91,7.711,6.721,6.721,0,0,0,4.142.523,7.714,7.714,0,0,0,1.956-.643,9.849,9.849,0,0,0,2.91-2.1,10.586,10.586,0,0,0,3.273-6.621c.115-1.086-.342-1.882-2.193-2.839a13.3,13.3,0,0,0-5.653-1.079,9.343,9.343,0,0,0-2.045.311,12.548,12.548,0,0,1,2.25-3.607Z" transform="translate(-48.882 -34.687)" fill="#e1001e"></path></g></svg>
